<svg width="498" height="136" viewBox="0 0 498 136" fill="none" xmlns="http://www.w3.org/2000/svg">
<path d="M249 41C261.561 40.8453 261.561 40.8453 274.375 40.6875C276.999 40.642 279.622 40.5965 282.326 40.5496C284.433 40.5349 286.541 40.5222 288.648 40.5117C289.72 40.4861 290.792 40.4606 291.896 40.4342C300.701 40.4292 307.075 42.7573 313.875 48.375C320.416 56.4549 321.098 62.5536 320 73C318.323 79.5389 314.605 82.5506 309 86C309.508 86.2797 310.016 86.5594 310.539 86.8476C316.797 90.4924 322.305 95.0777 325 102C325.834 109.875 326.033 117.536 321 124C315.361 129.908 306.756 133.718 298.545 134.12C297.63 134.118 296.715 134.116 295.772 134.114C294.717 134.113 293.662 134.113 292.575 134.113C291.472 134.108 290.37 134.103 289.234 134.098C288.216 134.097 287.198 134.096 286.149 134.095C282.349 134.089 278.55 134.075 274.75 134.062C262.004 134.032 262.004 134.032 249 134C249 103.31 249 72.62 249 41Z" fill="#FC751C"/>
<path d="M0 41C12.5606 40.8453 12.5606 40.8453 25.375 40.6875C27.9987 40.642 30.6225 40.5965 33.3257 40.5496C35.4333 40.5349 37.5408 40.5222 39.6484 40.5117C40.7201 40.4861 41.7917 40.4606 42.8958 40.4342C51.7011 40.4292 58.0746 42.7573 64.875 48.375C71.4159 56.4549 72.0978 62.5536 71 73C69.3231 79.5389 65.6053 82.5506 60 86C60.5079 86.2797 61.0158 86.5594 61.5391 86.8476C67.7973 90.4924 73.3046 95.0777 76 102C76.834 109.875 77.033 117.536 72 124C66.3607 129.908 57.7561 133.718 49.5449 134.12C48.63 134.118 47.7151 134.116 46.7725 134.114C45.7172 134.113 44.6619 134.113 43.5747 134.113C42.4724 134.108 41.3701 134.103 40.2344 134.098C39.2162 134.097 38.198 134.096 37.1489 134.095C33.3493 134.089 29.5496 134.075 25.75 134.062C13.0037 134.032 13.0037 134.032 0 134C0 103.31 0 72.62 0 41Z" fill="#4B4B4B"/>
<path d="M393.234 55.3203C401.628 61.0947 406.708 69.1077 409 79C410.372 91.5135 407.898 104.007 400 114C392.498 121.755 383.052 125.136 372.375 125.438C360.827 125.024 351.732 121.163 343.75 112.813C337.177 104.868 335.667 98.0859 335.562 87.9375C335.547 86.6791 335.547 86.6791 335.531 85.3953C335.669 75.6479 338.757 67.5024 345 60C358.065 47.3561 377.861 46.2361 393.234 55.3203Z" fill="#FDFDFD"/>
<path d="M97 41C144.85 41 192.7 41 242 41C242 44.3 242 47.6 242 51C222.53 51 203.06 51 183 51C183 61.23 183 71.46 183 82C200.16 82 217.32 82 235 82C235 85.3 235 88.6 235 92C217.84 92 200.68 92 183 92C183 102.56 183 113.12 183 124C202.14 124 221.28 124 241 124C241 127.3 241 130.6 241 134C218.56 134 196.12 134 173 134C173 106.61 173 79.22 173 51C162.11 51 151.22 51 140 51C140 78.39 140 105.78 140 134C136.7 134 133.4 134 130 134C130 106.61 130 79.22 130 51C119.11 51 108.22 51 97 51C97 47.7 97 44.4 97 41Z" fill="#484848"/>
<path d="M371.125 39.75C372.637 39.7191 372.637 39.7191 374.18 39.6875C385.865 39.627 396.706 43.5698 405.535 51.4453C408.861 54.9748 411.48 58.869 414 63C414.513 63.816 415.026 64.632 415.555 65.4727C421.123 76.1527 421.06 91.5621 418.113 103.125C414.089 114.464 405.787 124.611 395.063 130.25C387.363 133.665 380.594 135.54 372.125 135.438C371.247 135.43 370.37 135.422 369.465 135.415C362.67 135.242 357.065 134.197 351 131C350.143 130.576 349.286 130.152 348.402 129.715C336.917 123.496 329.148 112.566 325.431 100.089C322.86 87.6197 324.155 73.2745 330.578 62.3047C332.271 59.7507 334.065 57.3739 336 55C336.5 54.3632 337 53.7264 337.516 53.0703C346.095 43.3208 358.697 39.8121 371.125 39.75ZM344 61C335.702 72.6289 334.892 84.1292 336 98C337.658 107.048 343.974 114.362 351.305 119.668C360.838 125.292 371.368 126.562 382.188 124.348C392.353 121.327 399.678 116.111 404.781 106.727C409.492 96.1869 411.033 84.2698 407.375 73.1875C403.123 62.9587 396.224 56.0285 386.063 51.625C371.791 46.9274 354.141 49.0692 344 61Z" fill="#4B4B4B"/>
<path d="M415 41C419.525 40.2447 423.491 40.0601 428 41C431.307 43.7742 433.311 47.1934 435.577 50.8364C438.609 55.4467 442.073 59.7553 445.438 64.125C446.149 65.0617 446.86 65.9985 447.593 66.9636C451.095 71.6557 451.095 71.6557 455 76C462.123 66.8847 469.241 57.7723 476.133 48.4805C476.749 47.6619 477.365 46.8434 478 46C478.601 45.0745 479.201 44.1489 479.82 43.1953C482 41 482 41 485.234 40.5117C486.975 40.5987 486.975 40.5987 488.75 40.6875C489.92 40.7326 491.091 40.7777 492.297 40.8242C493.635 40.9112 493.635 40.9112 495 41C492.173 46.5309 488.609 51.0121 484.633 55.7695C481.036 60.1251 477.69 64.6715 474.331 69.2119C471.045 73.6482 467.646 77.9455 464.012 82.1055C462.818 83.9826 462.818 83.9826 463.004 86.3164C464.385 90.0362 466.722 92.7581 469.25 95.75C470.347 97.0832 471.442 98.4179 472.535 99.7539C473.105 100.448 473.675 101.141 474.262 101.856C477.143 105.411 479.917 109.046 482.688 112.688C483.498 113.751 483.498 113.751 484.324 114.837C485.885 116.89 487.442 118.945 489 121C489.477 121.627 489.955 122.255 490.446 122.901C491.738 124.599 493.026 126.299 494.312 128C495.031 128.949 495.749 129.897 496.488 130.875C498 133 498 133 498 134C493.499 134.689 489.487 134.87 485 134C481.659 131.422 479.512 128.293 477.203 124.785C475.425 122.147 473.486 119.638 471.558 117.109C470.009 115.074 468.478 113.026 466.953 110.973C464.23 107.307 461.492 103.652 458.75 100C457.5 98.3333 456.25 96.6667 455 95C450.864 98.7714 447.773 103.244 444.5 107.75C443.881 108.583 443.262 109.416 442.625 110.275C439.585 114.378 436.645 118.496 433.906 122.809C426.921 133.508 426.921 133.508 421.141 134.988C417.607 134.999 414.45 134.735 411 134C411.367 133.511 411.734 133.022 412.113 132.518C414.688 129.086 417.261 125.652 419.824 122.211C424.751 115.606 429.714 109.036 434.812 102.562C435.263 101.987 435.713 101.411 436.177 100.818C438.178 98.2685 440.201 95.7655 442.312 93.3047C443.303 92.1329 443.303 92.1329 444.312 90.9375C445.173 89.961 445.173 89.961 446.051 88.9648C447.232 87.0187 447.232 87.0187 446.574 84.7852C444.27 80.7085 441.419 77.1529 438.5 73.5C437.229 71.8882 435.958 70.2763 434.688 68.6641C434.061 67.8729 433.435 67.0817 432.789 66.2666C428.805 61.2195 424.909 56.1049 421 51C420.358 50.1737 419.716 49.3474 419.055 48.4961C418.5 47.7755 417.946 47.0549 417.375 46.3125C416.908 45.7105 416.442 45.1085 415.961 44.4883C415 43 415 43 415 41Z" fill="#4A4A4A"/>
<path d="M127 0C127.33 0 127.66 0 128 0C130.448 10.0762 131.851 20.4133 127 30C123.37 34.3946 119.401 37.1997 114 39C112.482 39.1351 110.96 39.2238 109.438 39.2812C108.119 39.3373 108.119 39.3373 106.773 39.3945C104 39.5 104 39.5 101.227 39.6055C99.9079 39.6615 99.9079 39.6615 98.5625 39.7188C97.7594 39.749 96.9563 39.7793 96.1289 39.8105C93.813 39.9341 93.813 39.9341 91 41C91 71.69 91 102.38 91 134C87.37 134 83.74 134 80 134C80 102.98 80 71.96 80 40C85.94 39.505 85.94 39.505 92 39C94.7742 36.8546 94.7742 36.8546 96.25 33.8125C99.5437 28.5025 102.814 25.3885 108 22C108.33 21.67 108.66 21.34 109 21C103.999 23.6585 99.2955 26.2588 95 30C93.5335 27.067 93.6356 25.2796 94 22C96.0826 17.1437 98.8868 13.2297 103.707 10.793C107.92 9.33607 112.307 8.63609 116.695 7.90625C121.652 6.54697 124.183 4.22573 127 0Z" fill="#FB7720"/>
<path d="M11 92C16.4082 91.9309 21.8149 91.8712 27.2231 91.8352C29.0601 91.8202 30.897 91.7998 32.7339 91.7737C35.3852 91.737 38.036 91.7202 40.6875 91.707C41.4993 91.6915 42.3111 91.6761 43.1475 91.6601C50.8828 91.6579 57.2248 93.5645 63 99C66.121 103.682 65.5799 108.52 65 114C62.6985 119.046 60.1054 120.979 55 123C52.2212 123.817 49.7665 124.123 46.874 124.114C46.0735 124.113 45.273 124.113 44.4482 124.113C43.1667 124.106 43.1667 124.106 41.8594 124.098C40.9772 124.096 40.095 124.095 39.1861 124.093C36.374 124.088 33.562 124.075 30.75 124.063C28.8411 124.057 26.9323 124.053 25.0234 124.049C20.3489 124.039 15.6745 124.019 11 124C11 113.44 11 102.88 11 92Z" fill="#FEFEFE"/>
<path d="M260 92C265.408 91.9309 270.815 91.8712 276.223 91.8352C278.06 91.8202 279.897 91.7998 281.734 91.7737C284.385 91.737 287.036 91.7202 289.688 91.707C290.499 91.6915 291.311 91.6761 292.147 91.6601C299.813 91.6579 306.343 93.5095 312 99C314.901 103.688 314.619 108.663 314 114C311.67 119.018 309.096 120.983 304 123C301.221 123.817 298.766 124.123 295.874 124.114C295.073 124.113 294.273 124.113 293.448 124.113C292.167 124.106 292.167 124.106 290.859 124.098C289.977 124.096 289.095 124.095 288.186 124.093C285.374 124.088 282.562 124.075 279.75 124.063C277.841 124.057 275.932 124.053 274.023 124.049C269.349 124.039 264.675 124.019 260 124C260 113.44 260 102.88 260 92Z" fill="#FEFEFE"/>
<path d="M260 51C265.266 50.9078 270.53 50.8283 275.796 50.7803C277.584 50.7603 279.373 50.733 281.161 50.6982C283.743 50.6493 286.324 50.6269 288.906 50.6094C290.091 50.5784 290.091 50.5784 291.3 50.5468C296.927 50.5446 301.347 51.7414 306 55C309.661 59.1678 310.658 63.3615 310.387 68.8594C309.551 73.4853 306.841 76.2218 303.5 79.3125C298.788 82.4932 294.048 82.1339 288.516 82.0977C287.7 82.0962 286.884 82.0948 286.044 82.0934C283.446 82.0878 280.848 82.0752 278.25 82.0625C276.486 82.0575 274.721 82.0529 272.957 82.0488C268.638 82.0387 264.319 82.0191 260 82C260 71.77 260 61.54 260 51Z" fill="#FEFEFD"/>
<path d="M11 51C16.2662 50.9078 21.5295 50.8283 26.7959 50.7803C28.5844 50.7603 30.3729 50.733 32.1611 50.6982C34.743 50.6493 37.324 50.6269 39.9062 50.6094C41.0911 50.5784 41.0911 50.5784 42.2999 50.5468C47.9213 50.5446 52.357 51.7317 57 55C59.9186 58.3871 61.2236 61.5873 61.4375 66.0625C60.8188 71.6304 59.2349 75.1155 55.0625 78.8125C50.0326 82.4053 45.5512 82.1372 39.5156 82.0977C38.7 82.0962 37.8844 82.0948 37.0441 82.0934C34.446 82.0878 31.8481 82.0752 29.25 82.0625C27.4857 82.0575 25.7214 82.0529 23.957 82.0488C19.638 82.0387 15.3191 82.0191 11 82C11 71.77 11 61.54 11 51Z" fill="#FEFEFE"/>
<path d="M127 0C127.33 0 127.66 0 128 0C130.448 10.0762 131.851 20.4133 127 30C123.37 34.3946 119.401 37.1997 114 39C112.301 39.1478 110.598 39.2475 108.895 39.3164C107.912 39.3583 106.929 39.4002 105.916 39.4434C104.38 39.5023 104.38 39.5023 102.812 39.5625C101.777 39.6057 100.741 39.6489 99.6738 39.6934C97.116 39.7994 94.5581 39.9015 92 40C96.8692 31.2142 102.039 24.8412 111 20C105.024 22.7755 99.8604 25.5233 95 30C93.5335 27.067 93.6356 25.2796 94 22C96.0826 17.1437 98.8868 13.2297 103.707 10.793C107.92 9.33607 112.307 8.63609 116.695 7.90625C121.652 6.54697 124.183 4.22573 127 0Z" fill="#80B347"/>
</svg>
